<svg width="21" height="21" viewBox="0 0 21 21" fill="none" xmlns="http://www.w3.org/2000/svg">
<path fill-rule="evenodd" clip-rule="evenodd" d="M14.5712 1H17.6745C18.9584 1 20 2.0506 20 3.34667V6.4759C20 7.77099 18.9584 8.82257 17.6745 8.82257H14.5712C13.2863 8.82257 12.2448 7.77099 12.2448 6.4759V3.34667C12.2448 2.0506 13.2863 1 14.5712 1ZM3.32647 1H6.42877C7.71368 1 8.75524 2.0506 8.75524 3.34667V6.4759C8.75524 7.77099 7.71368 8.82257 6.42877 8.82257H3.32647C2.04156 8.82257 1 7.77099 1 6.4759V3.34667C1 2.0506 2.04156 1 3.32647 1ZM3.32647 12.1774H6.42877C7.71368 12.1774 8.75524 13.228 8.75524 14.5251V17.6533C8.75524 18.9494 7.71368 20 6.42877 20H3.32647C2.04156 20 1 18.9494 1 17.6533V14.5251C1 13.228 2.04156 12.1774 3.32647 12.1774ZM14.5712 12.1774H17.6745C18.9584 12.1774 20 13.228 20 14.5251V17.6533C20 18.9494 18.9584 20 17.6745 20H14.5712C13.2863 20 12.2448 18.9494 12.2448 17.6533V14.5251C12.2448 13.228 13.2863 12.1774 14.5712 12.1774Z" stroke="#F2F2F2" stroke-width="1.5" stroke-linecap="round" stroke-linejoin="round"/>
</svg>
