<svg width="21" height="16" viewBox="0 0 21 16" fill="none" xmlns="http://www.w3.org/2000/svg">
<path d="M15.2727 10.15H15.4227V10V2V1.85H15.2727H1.90909H1.75909V2V10V10.15H1.90909H15.2727ZM19.2409 14V3.15H20.85V14C20.85 15.0238 20.0516 15.85 19.0909 15.85H3.01364V15.8454V15.8402V15.8351V15.8299V15.8248V15.8197V15.8147V15.8096V15.8046V15.7996V15.7946V15.7896V15.7847V15.7797V15.7748V15.77V15.7651V15.7603V15.7554V15.7506V15.7459V15.7411V15.7364V15.7316V15.7269V15.7223V15.7176V15.713V15.7083V15.7037V15.6992V15.6946V15.6901V15.6855V15.681V15.6765V15.6721V15.6676V15.6632V15.6588V15.6544V15.65V15.6456V15.6413V15.637V15.6327V15.6284V15.6241V15.6199V15.6156V15.6114V15.6072V15.603V15.5989V15.5947V15.5906V15.5865V15.5824V15.5783V15.5742V15.5702V15.5661V15.5621V15.5581V15.5541V15.5502V15.5462V15.5423V15.5384V15.5344V15.5306V15.5267V15.5228V15.519V15.5151V15.5113V15.5075V15.5037V15.4999V15.4962V15.4924V15.4887V15.485V15.4813V15.4776V15.4739V15.4702V15.4666V15.463V15.4593V15.4557V15.4521V15.4485V15.445V15.4414V15.4379V15.4343V15.4308V15.4273V15.4238V15.4203V15.4168V15.4134V15.4099V15.4065V15.4031V15.3997V15.3962V15.3929V15.3895V15.3861V15.3827V15.3794V15.3761V15.3727V15.3694V15.3661V15.3628V15.3595V15.3563V15.353V15.3497V15.3465V15.3433V15.34V15.3368V15.3336V15.3304V15.3272V15.3241V15.3209V15.3177V15.3146V15.3114V15.3083V15.3052V15.3021V15.2989V15.2958V15.2928V15.2897V15.2866V15.2835V15.2805V15.2774V15.2744V15.2713V15.2683V15.2653V15.2623V15.2592V15.2562V15.2532V15.2503V15.2473V15.2443V15.2413V15.2384V15.2354V15.2324V15.2295V15.2266V15.2236V15.2207V15.2178V15.2149V15.2119V15.209V15.2061V15.2032V15.2003V15.1975V15.1946V15.1917V15.1888V15.186V15.1831V15.1802V15.1774V15.1745V15.1717V15.1688V15.166V15.1631V15.1603V15.1575V15.1547V15.1518V15.149V15.1462V15.1434V15.1406V15.1378V15.1349V15.1321V15.1293V15.1265V15.1237V15.1209V15.1181V15.1154V15.1126V15.1098V15.107V15.1042V15.1014V15.0986V15.0959V15.0931V15.0903V15.0875V15.0847V15.082V15.0792V15.0764V15.0736V15.0708V15.0681V15.0653V15.0625V15.0597V15.057V15.0542V15.0514V15.0486V15.0458V15.0431V15.0403V15.0375V15.0347V15.0319V15.0291V15.0264V15.0236V15.0208V15.018V15.0152V15.0124V15.0096V15.0068V15.004V15.0012V14.9984V14.9956V14.9928V14.9899V14.9871V14.9843V14.9815V14.9786V14.9758V14.973V14.9701V14.9673V14.9644V14.9616V14.9587V14.9559V14.953V14.9502V14.9473V14.9444V14.9415V14.9387V14.9358V14.9329V14.93V14.9271V14.9242V14.9212V14.9183V14.9154V14.9125V14.9095V14.9066V14.9036V14.9007V14.8977V14.8948V14.8918V14.8888V14.8858V14.8828V14.8798V14.8768V14.8738V14.8708V14.8678V14.8647V14.8617V14.8587V14.8556V14.8525V14.8495V14.8464V14.8433V14.8402V14.8371V14.834V14.8309V14.8277V14.8246V14.8215V14.8183V14.8151V14.812V14.8088V14.8056V14.8024V14.7992V14.796V14.7928V14.7895V14.7863V14.783V14.7797V14.7765V14.7732V14.7699V14.7666V14.7633V14.7599V14.7566V14.7532V14.7499V14.7465V14.7431V14.7397V14.7363V14.7329V14.7295V14.726V14.7226V14.7191V14.7156V14.7122V14.7087V14.7051V14.7016V14.6981V14.6945V14.691V14.6874V14.6838V14.6802V14.6766V14.673V14.6693V14.6657V14.662V14.6583V14.6546V14.6509V14.6472V14.6435V14.6397V14.6359V14.6322V14.6284V14.6246V14.6207V14.6169V14.613V14.6092V14.6053V14.6014V14.5975V14.5936V14.5896V14.5857V14.5817V14.5777V14.5737V14.5697V14.5656V14.5616V14.5575V14.5534V14.5493V14.5452V14.5411V14.5369V14.5327V14.5285V14.5243V14.5201V14.5159V14.5116V14.5073V14.5031V14.4987V14.4944V14.4901V14.4857V14.4813V14.4769V14.4725V14.4681V14.4636V14.4592V14.4547V14.4502V14.4456V14.4411V14.4365V14.4319V14.4273V14.4227V14.418V14.4134V14.4087V14.404V14.3993V14.3945V14.3898V14.385V14.3802V14.3753V14.3705V14.3656V14.3607V14.3558V14.3509V14.346V14.341V14.336V14.331V14.3259V14.3209V14.3158V14.3107V14.3056V14.3004V14.2953V14.2901V14.2849V14.2796V14.2744V14.2691V14.2638V14.2585V14.2531V14.2477V14.2424V14.2369V14.2315V14.226V14.2205V14.215V14.2095V14.2039V14.1984V14.1927V14.1871V14.1815V14.1758V14.1701V14.1643V14.1586V14.1528V14.15H19.0909H19.2409V14ZM17.0318 2V10C17.0318 11.0238 16.2334 11.85 15.2727 11.85H1.90909C0.948433 11.85 0.15 11.0238 0.15 10V2C0.15 0.97619 0.948433 0.15 1.90909 0.15H15.2727C16.2334 0.15 17.0318 0.97619 17.0318 2ZM5.87727 6C5.87727 4.41619 7.09571 3.15 8.59091 3.15C10.0861 3.15 11.3045 4.41619 11.3045 6C11.3045 7.58381 10.0861 8.85 8.59091 8.85C7.09571 8.85 5.87727 7.58381 5.87727 6Z" fill="black" stroke="white" stroke-width="0.3"/>
</svg>
