<svg width="21" height="21" viewBox="0 0 21 21" fill="none" xmlns="http://www.w3.org/2000/svg">
<rect width="21" height="21" stroke="black"/>
<path d="M18.5698 6.29596V17.4009C18.5698 17.9116 18.5636 18.4243 18.5698 18.9349V18.9554L19.5952 17.93H2.14714C1.9113 17.93 1.67546 17.928 1.43962 17.93H1.40886L2.43425 18.9554V7.85045C2.43425 7.3398 2.44041 6.82711 2.43425 6.31646V6.29596L1.40886 7.32135H18.8569C19.0927 7.32135 19.3286 7.3234 19.5644 7.32135H19.5952C19.8577 7.32135 20.1345 7.2065 20.3212 7.02193C20.4996 6.84351 20.6329 6.5523 20.6206 6.29596C20.6083 6.0314 20.5221 5.7566 20.3212 5.56998C20.1202 5.38541 19.8741 5.27056 19.5952 5.27056H2.14714C1.9113 5.27056 1.67546 5.26851 1.43962 5.27056H1.40886C0.855151 5.27056 0.383472 5.74019 0.383472 6.29596V17.4009C0.383472 17.9116 0.377319 18.4243 0.383472 18.9349V18.9554C0.383472 19.5091 0.853101 19.9808 1.40886 19.9808H18.8569C19.0927 19.9808 19.3286 19.9829 19.5644 19.9808H19.5952C20.1489 19.9808 20.6206 19.5112 20.6206 18.9554V7.85045C20.6206 7.3398 20.6267 6.82711 20.6206 6.31646V6.29596C20.6206 6.03346 20.5057 5.7566 20.3212 5.56998C20.1427 5.39156 19.8515 5.25826 19.5952 5.27056C19.3306 5.28287 19.0558 5.369 18.8692 5.56998C18.6867 5.77301 18.5698 6.0191 18.5698 6.29596Z" fill="white"/>
<path d="M19.5953 5.27258H2.14723C1.91139 5.27258 1.67555 5.27053 1.43971 5.27258H1.40895C1.65094 5.85705 1.89293 6.43947 2.13492 7.02395L3.48844 5.5843C4.20826 4.81936 4.92809 4.05647 5.64586 3.29152C5.80992 3.11721 5.97604 2.94084 6.1401 2.76652C5.89811 2.86701 5.65611 2.9675 5.41412 3.06594H14.3432C14.7534 3.06594 15.1635 3.07209 15.5737 3.06594H15.5921C15.3502 2.96545 15.1082 2.86496 14.8662 2.76652L16.2197 4.20617C16.9395 4.97111 17.6593 5.734 18.3771 6.49895C18.5412 6.67326 18.7073 6.84963 18.8713 7.02395C19.0477 7.21262 19.341 7.32336 19.5973 7.32336C19.8496 7.32336 20.149 7.21262 20.3233 7.02395C20.5017 6.82912 20.635 6.57277 20.6227 6.29797C20.6104 6.02111 20.514 5.77707 20.3233 5.57199C19.9152 5.13928 19.5091 4.70656 19.101 4.27385C18.4058 3.53557 17.7127 2.79729 17.0174 2.06106C16.8103 1.83957 16.6011 1.62014 16.394 1.39865C16.1828 1.17307 15.9203 1.02131 15.5901 1.01516H5.72584C5.54127 1.01516 5.31773 0.994649 5.14137 1.05207C4.78863 1.16691 4.59381 1.41711 4.35387 1.67141C3.70787 2.35637 3.06393 3.04133 2.41793 3.72834C1.86832 4.31281 1.31871 4.89524 0.769101 5.47971C0.74039 5.51047 0.709629 5.54328 0.680918 5.57404C0.395859 5.87756 0.305625 6.30822 0.469687 6.69377C0.627597 7.06496 0.994687 7.32336 1.40689 7.32336H18.8549C19.0908 7.32336 19.3266 7.32541 19.5625 7.32336H19.5932C19.8557 7.32336 20.1326 7.20852 20.3192 7.02395C20.4976 6.84553 20.6309 6.55432 20.6186 6.29797C20.6063 6.03342 20.5202 5.75861 20.3192 5.57199C20.1203 5.38947 19.8742 5.27258 19.5953 5.27258Z" fill="white"/>
<path d="M11.7387 6.29593V11.9192C12.2534 11.6239 12.7682 11.3285 13.2809 11.0332C12.6041 10.6784 11.9274 10.3237 11.2486 9.96888C11.1624 9.92376 11.0763 9.87659 10.9881 9.83148C10.8281 9.7515 10.6538 9.68177 10.4693 9.68997C10.2806 9.69818 10.1206 9.74329 9.95042 9.82943C9.94221 9.83353 9.93401 9.83763 9.92581 9.84378C9.88069 9.86839 9.83352 9.89095 9.7884 9.91556C9.39465 10.1227 9.0009 10.3278 8.60715 10.5349C8.29133 10.701 7.97551 10.8671 7.65764 11.0312C8.17239 11.3265 8.68713 11.6218 9.19983 11.9171V6.29388L8.17444 7.31927H12.762C13.0245 7.31927 13.3014 7.20443 13.488 7.01985C13.6664 6.84144 13.7997 6.55023 13.7874 6.29388C13.7751 6.02933 13.689 5.75452 13.488 5.5679C13.287 5.38333 13.0409 5.26849 12.762 5.26849H8.17444C7.62073 5.26849 7.14905 5.73812 7.14905 6.29388V11.9171C7.14905 12.2781 7.34592 12.6205 7.65764 12.8031C7.98577 12.9958 8.36311 12.9753 8.69329 12.8031C9.36184 12.4524 10.0324 12.1017 10.701 11.751C10.7974 11.7018 10.8917 11.6505 10.9881 11.6013H9.95247C10.621 11.952 11.2916 12.3027 11.9602 12.6534C12.0566 12.7026 12.1509 12.7538 12.2473 12.8031C12.5754 12.9753 12.9548 12.9958 13.2829 12.8031C13.5947 12.6205 13.7915 12.2801 13.7915 11.9171V6.29388C13.7915 6.03138 13.6767 5.75452 13.4921 5.5679C13.3137 5.38948 13.0225 5.25618 12.7661 5.26849C12.5016 5.28079 12.2268 5.36693 12.0402 5.5679C11.8556 5.77298 11.7387 6.01907 11.7387 6.29593Z" fill="white"/>
</svg>
