<svg width="18" height="18" viewBox="0 0 18 18" fill="none" xmlns="http://www.w3.org/2000/svg">
<mask id="path-1-inside-1_16_1237" fill="white">
<path d="M15.8766 9.882C15.9136 9.594 15.9414 9.306 15.9414 9C15.9414 8.694 15.9136 8.406 15.8766 8.118L17.8289 6.633C18.0047 6.498 18.051 6.255 17.9399 6.057L16.0894 2.943C16.0062 2.799 15.8489 2.718 15.6823 2.718C15.6268 2.718 15.5713 2.727 15.525 2.745L13.2212 3.645C12.74 3.285 12.2219 2.988 11.6575 2.763L11.3059 0.378C11.2782 0.162 11.0839 0 10.8525 0H7.15155C6.92024 0 6.72593 0.162 6.69818 0.378L6.34658 2.763C5.78218 2.988 5.26404 3.294 4.78291 3.645L2.47905 2.745C2.42353 2.727 2.36802 2.718 2.3125 2.718C2.15521 2.718 1.99792 2.799 1.91464 2.943L0.0641489 6.057C-0.0561333 6.255 -0.000618345 6.498 0.175179 6.633L2.12745 8.118C2.09044 8.406 2.06268 8.703 2.06268 9C2.06268 9.297 2.09044 9.594 2.12745 9.882L0.175179 11.367C-0.000618345 11.502 -0.0468809 11.745 0.0641489 11.943L1.91464 15.057C1.99792 15.201 2.15521 15.282 2.32175 15.282C2.37727 15.282 2.43278 15.273 2.47905 15.255L4.78291 14.355C5.26404 14.715 5.78218 15.012 6.34658 15.237L6.69818 17.622C6.72593 17.838 6.92024 18 7.15155 18H10.8525C11.0839 18 11.2782 17.838 11.3059 17.622L11.6575 15.237C12.2219 15.012 12.74 14.706 13.2212 14.355L15.525 15.255C15.5806 15.273 15.6361 15.282 15.6916 15.282C15.8489 15.282 16.0062 15.201 16.0894 15.057L17.9399 11.943C18.051 11.745 18.0047 11.502 17.8289 11.367L15.8766 9.882ZM14.0446 8.343C14.0817 8.622 14.0909 8.811 14.0909 9C14.0909 9.189 14.0724 9.387 14.0446 9.657L13.9151 10.674L14.7386 11.304L15.7378 12.06L15.0902 13.149L13.9151 12.69L12.9529 12.312L12.1201 12.924C11.7223 13.212 11.3429 13.428 10.9636 13.581L9.98281 13.968L9.83477 14.985L9.64972 16.2H8.35437L8.17857 14.985L8.03053 13.968L7.04977 13.581C6.65191 13.419 6.28181 13.212 5.91172 12.942L5.06974 12.312L4.08898 12.699L2.91391 13.158L2.26624 12.069L3.26551 11.313L4.08898 10.683L3.95944 9.666C3.93168 9.387 3.91318 9.18 3.91318 9C3.91318 8.82 3.93168 8.613 3.95944 8.343L4.08898 7.326L3.26551 6.696L2.26624 5.94L2.91391 4.851L4.08898 5.31L5.05123 5.688L5.88396 5.076C6.28181 4.788 6.66117 4.572 7.04052 4.419L8.02128 4.032L8.16932 3.015L8.35437 1.8H9.64046L9.81626 3.015L9.9643 4.032L10.9451 4.419C11.3429 4.581 11.713 4.788 12.0831 5.058L12.9251 5.688L13.9059 5.301L15.0809 4.842L15.7286 5.931L14.7386 6.696L13.9151 7.326L14.0446 8.343ZM9.00204 5.4C6.95725 5.4 5.30105 7.011 5.30105 9C5.30105 10.989 6.95725 12.6 9.00204 12.6C11.0468 12.6 12.703 10.989 12.703 9C12.703 7.011 11.0468 5.4 9.00204 5.4ZM9.00204 10.8C7.98427 10.8 7.15155 9.99 7.15155 9C7.15155 8.01 7.98427 7.2 9.00204 7.2C10.0198 7.2 10.8525 8.01 10.8525 9C10.8525 9.99 10.0198 10.8 9.00204 10.8Z"/>
</mask>
<path d="M15.8766 9.882C15.9136 9.594 15.9414 9.306 15.9414 9C15.9414 8.694 15.9136 8.406 15.8766 8.118L17.8289 6.633C18.0047 6.498 18.051 6.255 17.9399 6.057L16.0894 2.943C16.0062 2.799 15.8489 2.718 15.6823 2.718C15.6268 2.718 15.5713 2.727 15.525 2.745L13.2212 3.645C12.74 3.285 12.2219 2.988 11.6575 2.763L11.3059 0.378C11.2782 0.162 11.0839 0 10.8525 0H7.15155C6.92024 0 6.72593 0.162 6.69818 0.378L6.34658 2.763C5.78218 2.988 5.26404 3.294 4.78291 3.645L2.47905 2.745C2.42353 2.727 2.36802 2.718 2.3125 2.718C2.15521 2.718 1.99792 2.799 1.91464 2.943L0.0641489 6.057C-0.0561333 6.255 -0.000618345 6.498 0.175179 6.633L2.12745 8.118C2.09044 8.406 2.06268 8.703 2.06268 9C2.06268 9.297 2.09044 9.594 2.12745 9.882L0.175179 11.367C-0.000618345 11.502 -0.0468809 11.745 0.0641489 11.943L1.91464 15.057C1.99792 15.201 2.15521 15.282 2.32175 15.282C2.37727 15.282 2.43278 15.273 2.47905 15.255L4.78291 14.355C5.26404 14.715 5.78218 15.012 6.34658 15.237L6.69818 17.622C6.72593 17.838 6.92024 18 7.15155 18H10.8525C11.0839 18 11.2782 17.838 11.3059 17.622L11.6575 15.237C12.2219 15.012 12.74 14.706 13.2212 14.355L15.525 15.255C15.5806 15.273 15.6361 15.282 15.6916 15.282C15.8489 15.282 16.0062 15.201 16.0894 15.057L17.9399 11.943C18.051 11.745 18.0047 11.502 17.8289 11.367L15.8766 9.882ZM14.0446 8.343C14.0817 8.622 14.0909 8.811 14.0909 9C14.0909 9.189 14.0724 9.387 14.0446 9.657L13.9151 10.674L14.7386 11.304L15.7378 12.06L15.0902 13.149L13.9151 12.69L12.9529 12.312L12.1201 12.924C11.7223 13.212 11.3429 13.428 10.9636 13.581L9.98281 13.968L9.83477 14.985L9.64972 16.2H8.35437L8.17857 14.985L8.03053 13.968L7.04977 13.581C6.65191 13.419 6.28181 13.212 5.91172 12.942L5.06974 12.312L4.08898 12.699L2.91391 13.158L2.26624 12.069L3.26551 11.313L4.08898 10.683L3.95944 9.666C3.93168 9.387 3.91318 9.18 3.91318 9C3.91318 8.82 3.93168 8.613 3.95944 8.343L4.08898 7.326L3.26551 6.696L2.26624 5.94L2.91391 4.851L4.08898 5.31L5.05123 5.688L5.88396 5.076C6.28181 4.788 6.66117 4.572 7.04052 4.419L8.02128 4.032L8.16932 3.015L8.35437 1.8H9.64046L9.81626 3.015L9.9643 4.032L10.9451 4.419C11.3429 4.581 11.713 4.788 12.0831 5.058L12.9251 5.688L13.9059 5.301L15.0809 4.842L15.7286 5.931L14.7386 6.696L13.9151 7.326L14.0446 8.343ZM9.00204 5.4C6.95725 5.4 5.30105 7.011 5.30105 9C5.30105 10.989 6.95725 12.6 9.00204 12.6C11.0468 12.6 12.703 10.989 12.703 9C12.703 7.011 11.0468 5.4 9.00204 5.4ZM9.00204 10.8C7.98427 10.8 7.15155 9.99 7.15155 9C7.15155 8.01 7.98427 7.2 9.00204 7.2C10.0198 7.2 10.8525 8.01 10.8525 9C10.8525 9.99 10.0198 10.8 9.00204 10.8Z" fill="black" stroke="white" stroke-width="0.6" mask="url(#path-1-inside-1_16_1237)"/>
</svg>
