<svg width="19" height="19" viewBox="0 0 19 19" fill="none" xmlns="http://www.w3.org/2000/svg">
<path d="M12.4676 1.82036L12.3761 1.78481L12.3389 1.87563L10.7918 5.64849L10.7522 5.74501L10.8503 5.78047C11.9488 6.17752 12.8225 7.05122 13.2195 8.14971L13.2551 8.24812L13.3518 8.20812L17.1247 6.64741L17.2151 6.61L17.1796 6.51878C16.3415 4.36163 14.6242 2.65826 12.4676 1.82036ZM6.66081 1.87494L6.62317 1.78507L6.53236 1.82036C4.37549 2.65838 2.65838 4.37549 1.82036 6.53236L1.78496 6.62345L1.87523 6.66093L5.63451 8.22164L5.73101 8.2617L5.7668 8.16355C6.17744 7.0376 7.05118 6.1642 8.17614 5.76716L8.276 5.73191L8.2351 5.63423L6.66081 1.87494ZM6.51878 17.1796L6.6096 17.2149L6.64724 17.1251L8.22152 13.3658L8.26228 13.2685L8.16292 13.233C7.05115 12.8359 6.16409 11.9488 5.76703 10.8371L5.7317 10.7382L5.63463 10.7783L1.86177 12.339L1.77135 12.3764L1.80679 12.4676C2.64481 14.6245 4.36192 16.3416 6.51878 17.1796ZM12.3526 17.1247L12.39 17.2151L12.4812 17.1796C14.6381 16.3416 16.3419 14.6379 17.1663 12.4669L17.2007 12.3765L17.1115 12.3392L13.3522 10.7649L13.2538 10.7237L13.219 10.8245C12.8353 11.9359 11.962 12.8225 10.8507 13.2194L10.7517 13.2547L10.7919 13.3518L12.3526 17.1247ZM0.1 9.5C0.1 4.30309 4.30309 0.1 9.5 0.1C14.6969 0.1 18.9 4.30309 18.9 9.5C18.9 14.6969 14.6969 18.9 9.5 18.9C4.30309 18.9 0.1 14.6969 0.1 9.5ZM9.5 6.68571C7.95191 6.68571 6.68571 7.95191 6.68571 9.5C6.68571 11.0481 7.95191 12.3143 9.5 12.3143C11.0481 12.3143 12.3143 11.0481 12.3143 9.5C12.3143 7.95191 11.0481 6.68571 9.5 6.68571Z" fill="black" stroke="white" stroke-width="0.2"/>
</svg>
